<?xml version="1.0" encoding="UTF-8"?><svg id="Layer_2" xmlns="http://www.w3.org/2000/svg" xmlns:xlink="http://www.w3.org/1999/xlink" viewBox="0 0 61.4 34"><defs><style>.cls-1{fill:#ffffff}</style></defs><path class="cls-1" d="M60.5,28.9l-6.9-6.9c-.6-.6-1.3-.9-2.1-.9h-10.9V9.9c0-.8-.3-1.5-.9-2.1L32.8,.9c-.6-.6-1.3-.9-2.1-.9s-1.5,.3-2,.8L.9,28.6c-1.2,1.2-1.2,3,0,4.2,.6,.5,1.3,.8,2.1,.8H12.8c.8,0,1.5-.3,2.1-.9l12.8-12.8v7.6c0,.8,.3,1.5,.9,2.1l3.5,3.5c.6,.6,1.3,.9,2.1,.9h24.2c.8,0,1.5-.3,2.1-.9,.6-.6,.9-1.3,.9-2.1-.1-.8-.4-1.5-.9-2.1m-48,1H4.8L27.7,7v7.7l-15.2,15.2Zm28.1,.4v-5.5h10.6l5.5,5.5h-16.1Z"/></svg>